# xmcd
#
# Track frame offsets:
#	150
#	13387
#	18015
#	21182
#	32237
#	49125
#	56377
#	61050
#	64942
#	68472
#	73367
#	79690
#	86387
#	92745
#	101122
#	113050
#	116225
#	118002
#	125502
#	133477
#	137957
#	152665
#	173855
#	182235
#	187440
#	196542
#	206360
#	211012
#	225485
#	233832
#	237787
#	241652
#	250842
#	254540
#	261122
#	267227
#	275360
#	280517
#
# Disc length: 3783 seconds
#
# Revision: 1
# Processed by: cddbd v1.5.1PL0 Copyright (c) Steve Scherf et al.
# Submitted via: CDex 1.50Beta5
#
DISCID=220ec526
DTITLE=DiSNEY’s - SING ALONG!
DYEAR=1900
DGENRE=
TTITLE0=What’s Your Name?
TTITLE1=The Introduction Song
TTITLE2=The Introduction Song
TTITLE3=What’s in Your Basket?
TTITLE4=The ABC Song
TTITLE5=Pluto’s Song
TTITLE6=Mickey Magician
TTITLE7=Let’s Clap for Mickey
TTITLE8=The Spelling Song
TTITLE9=The Thank You Song
TTITLE10=Huey,Dewey,and Louie
TTITLE11=Huey Takes a Red Balloon
TTITLE12=Goofy Is Sleeping in a Red Bed
TTITLE13=Huey Is Sitting at the Table
TTITLE14=Look!Where?Over There!
TTITLE15=Around and Around
TTITLE16=Up,Down
TTITLE17=Clap Your Hands!
TTITLE18=Pluto’s Birthday Song
TTITLE19=Birthday,Birthday
TTITLE20=What Does a Duck Say?
TTITLE21=Let’s Have a Birthday Party
TTITLE22=Ten Little Candles
TTITLE23=Flour,Sugar,Milk,and Butter
TTITLE24=Taking Turns
TTITLE25=Tick,Tock
TTITLE26=Mickey Mouse’s House
TTITLE27=Knock,Knock,knock
TTITLE28=Where Is Mickey?
TTITLE29=When Pluto Is Happy
TTITLE30=If You’re Happy
TTITLE31=Balloons
TTITLE32=How Old Are You?
TTITLE33=Happy Birthday to You
TTITLE34=The Wishing Song
TTITLE35=Five Little Candles Burning
TTITLE36=Birthday Cake Is Good
TTITLE37=Birthday Gifts
EXTD=
EXTT0=
EXTT1=
EXTT2=
EXTT3=
EXTT4=
EXTT5=
EXTT6=
EXTT7=
EXTT8=
EXTT9=
EXTT10=
EXTT11=
EXTT12=
EXTT13=
EXTT14=
EXTT15=
EXTT16=
EXTT17=
EXTT18=
EXTT19=
EXTT20=
EXTT21=
EXTT22=
EXTT23=
EXTT24=
EXTT25=
EXTT26=
EXTT27=
EXTT28=
EXTT29=
EXTT30=
EXTT31=
EXTT32=
EXTT33=
EXTT34=
EXTT35=
EXTT36=
EXTT37=
PLAYORDER=
